<?xml version="1.0" encoding="utf-8"?>
<!-- Generator: Adobe Illustrator 24.3.0, SVG Export Plug-In . SVG Version: 6.00 Build 0)  -->
<svg version="1.1" id="Layer_1" xmlns="http://www.w3.org/2000/svg" xmlns:xlink="http://www.w3.org/1999/xlink" x="0px" y="0px"
	 viewBox="0 0 24 24" style="enable-background:new 0 0 24 24;" xml:space="preserve">
<style type="text/css">
	.st0{fill:#C1C6CD;}
	.st1{fill:#FFFFFF;}
</style>
<g>
	<circle class="st0" cx="12" cy="12" r="12"/>
	<g>
		<path class="st1" d="M14.7,12.4c-0.5-0.2-1-0.4-1.2-0.6c0.8-0.2,1.3-0.9,1.3-1.7V8.2c0-1.5-1.3-2.8-2.8-2.8l0,0l0,0h0
			c-1.5,0-2.8,1.3-2.8,2.9v1.8c0,0.8,0.5,1.5,1.3,1.7c-0.2,0.2-0.7,0.4-1.2,0.6c-0.1,0.1-0.3,0.1-0.5,0.2c-0.5-0.6-0.6-1-0.5-1.1
			l0.2-0.2c0.2-0.2,0.3-0.4,0.3-0.7c0-0.2-0.1-0.5-0.3-0.7L7.8,9.1c-0.4-0.4-1-0.4-1.3,0h0V8.3c0-0.9,0.8-1.8,1.7-1.8
			c0.2,0,0.4,0.1,0.6,0.2c0.2,0.1,0.4,0,0.5-0.2c0.1-0.2,0-0.4-0.2-0.5C8.8,6,8.5,5.9,8.2,5.9c0,0,0,0,0,0v0v0c0,0,0,0,0,0v0l0,0
			C6.8,5.9,5.8,7,5.8,8.3v1.6l0,0c-0.1,0.3-0.2,0.6,0,1.1c0.1,0.2,0.1,0.4,0.2,0.6c-0.1,0-0.1,0-0.2,0.1c-1.1,0.4-2.6,1-2.8,3
			c0,0.4,0.2,0.8,0.5,0.9l1.5,0.7c0,0,0.1,0,0.1,0c0.1,0,0.3-0.1,0.3-0.2c0.1-0.2,0-0.4-0.2-0.5L3.8,15c-0.1,0-0.1-0.1-0.1-0.2
			c0.2-1.6,1.3-2,2.4-2.4c0.1,0,0.2-0.1,0.2-0.1c0.2,0.4,0.5,0.8,0.9,1.2C6.4,14.1,6,14.9,6,15.9c0,0.4,0.2,0.8,0.6,1l4.8,1.9
			c0.2,0.1,0.4,0.1,0.7,0.1c0.2,0,0.4,0,0.7-0.1l4.7-1.9c0.4-0.2,0.7-0.6,0.6-1C17.8,13.6,16,12.9,14.7,12.4z M6.5,10.1l0.5-0.5
			c0,0,0.1-0.1,0.2-0.1c0.1,0,0.1,0,0.2,0.1L8,10.4c0,0,0.1,0.1,0.1,0.2c0,0.1,0,0.1-0.1,0.2L7.8,11c-0.6,0.6,0.1,1.7,0.9,2.5
			s1.9,1.5,2.5,0.9l0.2-0.2c0.1-0.1,0.3-0.1,0.3,0l0.7,0.7c0,0,0.1,0.1,0.1,0.2c0,0.1,0,0.1-0.1,0.2L12,15.7
			c-0.1,0.1-0.4,0.2-0.7,0.1c-1.4-0.4-3.6-2.4-4.5-4l0,0c0,0,0,0,0,0c-0.2-0.3-0.3-0.6-0.4-0.8C6.3,10.5,6.3,10.3,6.5,10.1z
			 M17.1,16.3l-4.7,1.9c-0.3,0.1-0.5,0.1-0.8,0l-4.8-1.9c-0.1-0.1-0.2-0.2-0.2-0.3c0.1-0.8,0.4-1.5,1-2c1.1,1.2,2.4,2.1,3.5,2.4
			c0.2,0.1,0.4,0.1,0.5,0.1c0.4,0,0.7-0.2,0.9-0.3l0.5-0.5c0.4-0.4,0.4-1,0-1.3l-0.7-0.7c-0.2-0.2-0.4-0.3-0.7-0.3
			c-0.2,0-0.5,0.1-0.7,0.3l-0.2,0.2c-0.1,0.1-0.7-0.1-1.4-0.8c0.1,0,0.1-0.1,0.2-0.1c0.6-0.2,1.2-0.5,1.5-0.8
			c0.1-0.2,0.2-0.4,0.1-0.6c-0.1-0.2-0.2-0.4-0.4-0.5c-0.5-0.1-0.8-0.6-0.8-1V8.2c0-1.2,1-2.2,2.1-2.2h0h0l0,0h0
			c1.1,0,2.1,1,2.1,2.1v1.9c0,0.5-0.4,0.9-0.8,1c-0.2,0.1-0.4,0.2-0.5,0.5c-0.1,0.2,0,0.5,0.1,0.6c0.3,0.4,0.9,0.6,1.5,0.8
			c1.3,0.5,2.7,1,2.9,2.9C17.3,16.1,17.2,16.2,17.1,16.3z"/>
		<path class="st1" d="M21,14.7c-0.2-2-1.7-2.6-2.8-3c-0.4-0.1-0.7-0.3-0.9-0.4c0.6-0.2,1-0.8,1-1.4V8.3c0-1.3-1.1-2.5-2.4-2.5
			c-0.3,0-0.6,0.1-0.9,0.2c-0.2,0.1-0.3,0.3-0.2,0.5s0.3,0.3,0.5,0.2c0.2-0.1,0.4-0.1,0.6-0.1c0.9,0,1.7,0.8,1.7,1.8v1.5
			c0,0.4-0.3,0.7-0.6,0.8c-0.2,0.1-0.4,0.2-0.4,0.4c-0.1,0.2,0,0.4,0.1,0.6c0.3,0.3,0.8,0.5,1.3,0.7c1,0.4,2.2,0.9,2.4,2.4
			c0,0.1,0,0.2-0.1,0.2l-1.5,0.7c-0.2,0.1-0.3,0.3-0.2,0.5c0.1,0.1,0.2,0.2,0.3,0.2c0,0,0.1,0,0.1,0l1.5-0.7
			C20.8,15.5,21,15.1,21,14.7z"/>
	</g>
</g>
</svg>
